<svg width="37" height="36" viewBox="0 0 37 36" fill="none" xmlns="http://www.w3.org/2000/svg">
<g id="Email">
<path id="Vector" d="M7.46603 7.2H31.316C33.566 7.2 34.7 8.262 34.7 10.422V25.578C34.7 27.72 33.566 28.8 31.316 28.8H7.46603C5.21603 28.8 4.08203 27.72 4.08203 25.578V10.422C4.08203 8.262 5.21603 7.2 7.46603 7.2ZM19.382 22.68L31.514 12.726C31.946 12.366 32.288 11.538 31.748 10.8C31.226 10.062 30.272 10.044 29.642 10.494L19.382 17.442L9.14003 10.494C8.51003 10.044 7.55603 10.062 7.03403 10.8C6.49403 11.538 6.83603 12.366 7.26803 12.726L19.382 22.68Z" fill="black"/>
</g>
</svg>
