<svg width="189" height="30" viewBox="0 0 189 30" fill="none" xmlns="http://www.w3.org/2000/svg">
<g id="DRIVERAVE">
<path d="M54.8721 0V30H48.5442V0H54.8721Z" fill="black"/>
<path d="M126.613 30H133.429L134.947 24.3956H131.404V18.8118H136.459L139.287 8.37118L138.726 6.30494L137.894 0H136.285L126.613 30Z" fill="black"/>
<path d="M131.404 18.8118V24.3956H134.947L136.459 18.8118H131.404Z" fill="black"/>
<path d="M134.947 24.3956H143.64L142.123 18.8118H136.459L134.947 24.3956Z" fill="black"/>
<path d="M140.606 0H137.894L138.726 6.30494L139.287 8.37118L139.847 6.30494L140.606 0Z" fill="black"/>
<path fill-rule="evenodd" clip-rule="evenodd" d="M114.897 0H104.537V30H110.883V19.4093H114.3L118.947 30H125.745V29.6909L120.258 17.5883C120.966 17.2 121.608 16.7494 122.183 16.2363C123.027 15.4808 123.684 14.5261 124.154 13.3723C124.624 12.2184 124.859 10.783 124.859 9.06593C124.859 7.08791 124.449 5.42582 123.63 4.07967C122.822 2.73352 121.671 1.71703 120.176 1.03022C118.682 0.343407 116.922 0 114.897 0ZM108.497 19.4093H110.883V13.8255H114.897C115.705 13.8255 116.374 13.6607 116.904 13.331C117.434 13.0014 117.832 12.5343 118.097 11.9299C118.374 11.3118 118.513 10.5769 118.513 9.72528C118.513 8.85989 118.374 8.11813 118.097 7.5C117.82 6.88187 117.41 6.40797 116.868 6.0783C116.337 5.74863 115.68 5.58379 114.897 5.58379H110.883V13.8255H108.461L108.497 19.4093Z" fill="#E84601"/>
<path d="M108.461 13.8255L108.497 19.4093H110.883V13.8255H108.461Z" fill="#E84601"/>
<path fill-rule="evenodd" clip-rule="evenodd" d="M101.934 30V24.4368H90.1639V17.2871H100.126V11.9093H90.1639V5.58379H101.988V0H90.1639V5.58379H87.9039V0H83.8179V30H87.9039H90.1639H101.934Z" fill="black"/>
<path d="M90.1639 0H87.9039V5.58379H90.1639V0Z" fill="black"/>
<path fill-rule="evenodd" clip-rule="evenodd" d="M34.3335 0H23.9738V30H30.3198V19.4093H33.7369L38.3834 30H45.1814V29.6909L39.6948 17.5883C40.4027 17.2 41.0444 16.7494 41.6197 16.2363C42.4634 15.4808 43.1203 14.5261 43.5904 13.3723C44.0604 12.2184 44.2955 10.783 44.2955 9.06593C44.2955 7.08791 43.8857 5.42582 43.066 4.07967C42.2585 2.73352 41.1074 1.71703 39.6128 1.03022C38.1182 0.343407 36.3584 0 34.3335 0ZM36.6296 19.4093H33.7369L32.5617 16.7308L39.2874 16.6896L39.6948 17.5883C39.3793 17.7613 39.0506 17.9219 38.7088 18.0701L36.6296 19.4093ZM30.3198 13.8255H34.3335C35.1411 13.8255 35.81 13.6607 36.3404 13.331C36.8707 13.0014 37.2685 12.5343 37.5336 11.9299C37.8108 11.3118 37.9495 10.5769 37.9495 9.72528C37.9495 8.85989 37.8108 8.11813 37.5336 7.5C37.2564 6.88187 36.8466 6.40797 36.3042 6.0783C35.7739 5.74863 35.117 5.58379 34.3335 5.58379H30.3198V13.8255Z" fill="black"/>
<path d="M36.6296 19.4093L38.7088 18.0701C39.0506 17.9219 39.3793 17.7613 39.6948 17.5883L39.2874 16.6896L32.5617 16.7308L33.7369 19.4093H36.6296Z" fill="black"/>
<path fill-rule="evenodd" clip-rule="evenodd" d="M6.346 30H8.55174C10.3115 30 11.9266 29.6566 13.3971 28.9698C14.8797 28.2692 16.1633 27.2802 17.2481 26.0027C18.3329 24.7253 19.1706 23.2074 19.7612 21.4492C20.3639 19.6909 20.6652 17.7541 20.6652 15.6387V14.3819C20.6652 12.2527 20.3639 10.3159 19.7612 8.57143C19.1706 6.81319 18.3269 5.29533 17.23 4.01786C16.1452 2.72665 14.8556 1.73764 13.361 1.05082C11.8784 0.350275 10.2452 0 8.46134 0H6.346V5.58379H2.60349V0H0V30H2.71197H6.346ZM6.346 24.4368V5.58379H8.46134C9.38943 5.58379 10.209 5.76923 10.9202 6.14011C11.6434 6.51099 12.246 7.06731 12.7282 7.80907C13.2103 8.53709 13.5719 9.45055 13.813 10.5495C14.0661 11.6346 14.1926 12.8984 14.1926 14.3407V15.6387C14.1926 17.5618 13.9696 19.1827 13.5237 20.5014C13.0898 21.8063 12.4509 22.7885 11.6072 23.4478C10.7755 24.1071 9.75706 24.4368 8.55174 24.4368H6.346Z" fill="black"/>
<path d="M2.60349 0V5.58379H6.346V0H2.60349Z" fill="black"/>
<path fill-rule="evenodd" clip-rule="evenodd" d="M156.565 21.8731L156.312 22.9327L155.426 30H153.094L144.271 0H151.34L156.565 21.8731ZM157.74 30L156.818 22.9327L156.565 21.8731L161.79 0H168.895L160.018 30H157.74Z" fill="black"/>
<path d="M155.426 30H157.74L156.818 22.9327L156.565 21.8731L156.312 22.9327L155.426 30Z" fill="black"/>
<path fill-rule="evenodd" clip-rule="evenodd" d="M188.946 30V24.4368H177.176V17.2871H187.138V11.9093H177.176V5.58379H189V0H177.176V5.58379H174.916V0H170.83V30H174.916H177.176H188.946Z" fill="black"/>
<path d="M177.176 0H174.916V5.58379H177.176V0Z" fill="black"/>
<path fill-rule="evenodd" clip-rule="evenodd" d="M69.5529 21.8731L69.2998 22.9327L68.4139 30H66.0816L57.2587 0H64.3279L69.5529 21.8731ZM70.7281 30L69.806 22.9327L69.5529 21.8731L74.778 0H81.8833L73.0062 30H70.7281Z" fill="black"/>
<path d="M68.4139 30H70.7281L69.806 22.9327L69.5529 21.8731L69.2998 22.9327L68.4139 30Z" fill="black"/>
</g>
</svg>
