<svg width="61" height="62" viewBox="0 0 61 62" fill="none" xmlns="http://www.w3.org/2000/svg">
<g id="Frame 329">
<circle id="Ellipse 12" cx="30.75" cy="31" r="30.25" fill="#E83801"/>
<path id="icon" fill-rule="evenodd" clip-rule="evenodd" d="M33.6072 33.0098L39.75 39.1526L38.1527 40.75L32.0099 34.6072C30.8628 35.4326 29.4798 35.9365 27.9683 35.9365C24.1196 35.9365 21 32.8169 21 28.9682C21 25.1196 24.1196 22 27.9683 22C31.8169 22 34.9365 25.1196 34.9365 28.9682C34.9365 30.4798 34.4327 31.8627 33.6072 33.0098ZM27.9683 24.1441C25.2989 24.1441 23.1441 26.2989 23.1441 28.9682C23.1441 31.6376 25.2989 33.7924 27.9683 33.7924C30.6376 33.7924 32.7925 31.6376 32.7925 28.9682C32.7925 26.2989 30.6376 24.1441 27.9683 24.1441Z" fill="white"/>
</g>
</svg>
