<svg width="29" height="20" viewBox="0 0 29 20" fill="none" xmlns="http://www.w3.org/2000/svg">
<g id="&#240;&#159;&#166;&#134; icon &#34;VK&#34;">
<path id="Vector" d="M27.8619 1.30676C28.0542 0.554019 27.8619 0 26.9366 0H23.8751C23.0954 0 22.7367 0.475733 22.5444 1.00566C22.5444 1.00566 20.985 5.4077 18.7811 8.2621C18.069 9.08711 17.7415 9.35208 17.3517 9.35208C17.1593 9.35208 16.8631 9.08711 16.8631 8.33437V1.30676C16.8631 0.40347 16.6447 0 16.0002 0H11.1869C10.6983 0 10.4072 0.421536 10.4072 0.812962C10.4072 1.66808 11.5092 1.8668 11.6236 4.27558V9.50263C11.6236 10.6468 11.4468 10.8576 11.057 10.8576C10.0174 10.8576 7.49121 6.43746 5.9942 1.37902C5.69272 0.397448 5.39644 0 4.61156 0H1.54998C0.676729 0 0.5 0.475733 0.5 1.00566C0.5 1.94509 1.53958 6.61209 5.33927 12.7786C7.87065 16.9879 11.4364 19.2702 14.6799 19.2702C16.6292 19.2702 16.8683 18.7644 16.8683 17.8912C16.8683 13.8685 16.6915 13.4892 17.6687 13.4892C18.121 13.4892 18.9006 13.7541 20.7199 15.7835C22.7991 18.1923 23.1422 19.2702 24.3065 19.2702H27.3681C28.2413 19.2702 28.6831 18.7644 28.4284 17.7647C27.8463 15.6631 23.9114 11.3393 23.7347 11.0503C23.2825 10.3758 23.4124 10.0747 23.7347 9.47252C23.7399 9.46649 27.4772 3.37229 27.8619 1.30676Z" fill="black"/>
</g>
</svg>
