<svg width="37" height="36" viewBox="0 0 37 36" fill="none" xmlns="http://www.w3.org/2000/svg">
<g id="Whatsapp">
<path id="Vector" d="M30.7401 10.26C26.4201 3.6 17.6001 1.62 10.7601 5.76C4.10009 9.9 1.94009 18.9 6.26009 25.56L6.62009 26.1L5.18009 31.5L10.5801 30.06L11.1201 30.42C13.4601 31.68 15.9801 32.4 18.5001 32.4C21.2001 32.4 23.9001 31.68 26.2401 30.24C32.9001 25.92 34.8801 17.1 30.7401 10.26ZM26.9601 24.12C26.2401 25.2 25.3401 25.92 24.0801 26.1C23.3601 26.1 22.4601 26.46 18.8601 25.02C15.8001 23.58 13.2801 21.24 11.4801 18.54C10.4001 17.28 9.86009 15.66 9.68009 14.04C9.68009 12.6 10.2201 11.34 11.1201 10.44C11.4801 10.08 11.8401 9.9 12.2001 9.9H13.1001C13.4601 9.9 13.8201 9.9 14.0001 10.62C14.3601 11.52 15.2601 13.68 15.2601 13.86C15.4401 14.04 15.4401 14.4 15.2601 14.58C15.4401 14.94 15.2601 15.3 15.0801 15.48C14.9001 15.66 14.7201 16.02 14.5401 16.2C14.1801 16.38 14.0001 16.74 14.1801 17.1C14.9001 18.18 15.8001 19.26 16.7001 20.16C17.7801 21.06 18.8601 21.78 20.1201 22.32C20.4801 22.5 20.8401 22.5 21.0201 22.14C21.2001 21.78 22.1001 20.88 22.4601 20.52C22.8201 20.16 23.0001 20.16 23.3601 20.34L26.2401 21.78C26.6001 21.96 26.9601 22.14 27.1401 22.32C27.3201 22.86 27.3201 23.58 26.9601 24.12Z" fill="black"/>
</g>
</svg>
